<?xml version="1.0" encoding="UTF-8"?>
<svg id="Layer_1" data-name="Layer 1" xmlns="http://www.w3.org/2000/svg" viewBox="0 0 1080 341.13">
  <defs>
    <style>
      .cls-1 {
        fill: #fff;
      }

      .cls-2 {
        font-family: Optima-Bold, Optima;
        font-size: 72.29px;
        font-weight: 700;
      }

      .cls-2, .cls-3 {
        fill: #a12127;
      }
    </style>
  </defs>
  <g>
    <rect class="cls-3" x="39.31" y="42.62" width="182.33" height="244.53"/>
    <polygon class="cls-1" points="109.21 271.59 209.23 170.79 141.19 134.23 186.81 58.29 100.13 148.56 166.01 185.64 109.21 271.59"/>
    <polygon class="cls-1" points="83.37 239.73 59.04 274.88 59.04 88.92 83.37 64.05 83.37 239.73"/>
  </g>
  <g>
    <path class="cls-3" d="M463.93,43.65h-35.57l-41.86,128.25-44.13-71.32,42.22-56.93h-39.57l-39.66,54.42h-.71v-54.42h-37.7v128.31h37.7v-33.65l10.05-13.53,28.01,47.19h83.43l6.66-25.52h38.42l6.66,25.52h39.66l-41.88-128.31h-11.74ZM439.75,119.85l11.91-45.62h.71l11.91,45.62h-24.54Z"/>
    <polygon class="cls-3" points="563.64 95.67 562.93 95.67 540.43 43.65 500.59 43.65 544.43 131.32 544.43 171.96 582.14 171.96 582.14 131.32 625.97 43.65 586.14 43.65 563.64 95.67"/>
    <polygon class="cls-3" points="712.16 109.27 711.54 109.27 666.19 43.65 634.8 43.65 634.8 171.96 672.5 171.96 672.5 105.27 673.13 105.27 718.83 171.96 749.87 171.96 749.87 43.65 712.16 43.65 712.16 109.27"/>
    <polygon class="cls-3" points="764.92 171.96 855.44 171.96 855.44 142.08 802.62 142.08 802.62 121.72 852.15 121.72 852.15 93.98 802.62 93.98 802.62 73.53 855.44 73.53 855.44 43.65 764.92 43.65 764.92 171.96"/>
    <path class="cls-3" d="M973.69,113.14c-2.93-4.89-7.4-8.91-13.38-12.05-5.99-3.14-13.58-5.54-22.76-7.2l-12.89-2.31c-6.4-1.19-11.06-2.56-13.96-4.13-2.9-1.57-4.36-3.81-4.36-6.71v-.09c0-1.96.59-3.72,1.78-5.29,1.19-1.57,2.95-2.81,5.29-3.73,2.34-.92,5.23-1.38,8.67-1.38s6.51.47,9.2,1.42c2.7.95,4.86,2.27,6.49,3.96,1.63,1.69,2.56,3.72,2.8,6.09l.09.89h34.68l-.09-1.96c-.36-8-2.61-14.95-6.76-20.85-4.15-5.9-10.14-10.45-17.96-13.65-7.83-3.2-17.46-4.8-28.9-4.8-10.14,0-19.18,1.72-27.12,5.16-7.94,3.44-14.18,8.3-18.72,14.58-4.54,6.28-6.8,13.72-6.8,22.32v.09c0,9.96,3.39,18.11,10.18,24.45,6.79,6.34,16.55,10.64,29.3,12.89l12.89,2.31c7.11,1.31,12.12,2.73,15.03,4.27,2.9,1.54,4.36,3.82,4.36,6.85v.09c0,2.13-.74,4.03-2.22,5.69-1.48,1.66-3.57,2.96-6.27,3.91-2.7.95-5.94,1.42-9.74,1.42-3.56,0-6.82-.49-9.78-1.47-2.96-.98-5.42-2.33-7.38-4.05-1.96-1.72-3.2-3.73-3.73-6.05l-.18-.8h-34.68l.09,1.69c.47,8.42,2.98,15.58,7.51,21.47,4.53,5.9,10.85,10.39,18.94,13.47,8.09,3.08,17.68,4.62,28.77,4.62,11.8,0,21.87-1.76,30.23-5.29,8.36-3.53,14.74-8.54,19.16-15.03,4.42-6.49,6.62-14.15,6.62-22.99v-.09c0-6.94-1.47-12.85-4.4-17.74Z"/>
  </g>
  <rect class="cls-3" x="266.87" y="187.5" width="709.77" height="7.52"/>
  <rect class="cls-3" x="266.87" y="286.47" width="709.77" height="7.52"/>
  <text class="cls-2" transform="translate(263.82 266.14)"><tspan x="0" y="0">INTERNATIONAL</tspan></text>
</svg>