<?xml version="1.0" encoding="UTF-8"?>
<svg id="Layer_1" data-name="Layer 1" xmlns="http://www.w3.org/2000/svg" viewBox="0 0 1080 300.31">
  <defs>
    <style>
      .cls-1 {
        fill: #a0262b;
      }

      .cls-2 {
        fill: #fff;
      }
    </style>
  </defs>
  <g>
    <rect class="cls-1" x="39.31" y="77.5" width="108.35" height="145.31"/>
    <polygon class="cls-2" points="80.85 213.57 140.28 153.67 99.85 131.94 126.96 86.81 75.45 140.45 114.6 162.49 80.85 213.57"/>
    <polygon class="cls-2" points="65.49 194.64 51.03 215.52 51.03 105.01 65.49 90.23 65.49 194.64"/>
  </g>
  <g>
    <path class="cls-1" d="M398.02,77.5h-40.28l-47.4,145.23-49.98-80.77,47.81-64.47h-44.81l-44.91,61.63h-.81v-61.63h-42.7v145.31h42.7v-38.11l11.38-15.32,31.71,53.44h94.49l7.55-28.9h43.51l7.55,28.9h44.91l-47.43-145.31h-13.29ZM370.63,163.8l13.49-51.66h.81l13.49,51.66h-27.79Z"/>
    <polygon class="cls-1" points="510.93 136.41 510.13 136.41 484.65 77.5 439.53 77.5 489.18 176.79 489.18 222.81 531.88 222.81 531.88 176.79 581.52 77.5 536.41 77.5 510.93 136.41"/>
    <polygon class="cls-1" points="679.13 151.82 678.43 151.82 627.07 77.5 591.52 77.5 591.52 222.81 634.22 222.81 634.22 147.29 634.92 147.29 686.68 222.81 721.83 222.81 721.83 77.5 679.13 77.5 679.13 151.82"/>
    <polygon class="cls-1" points="738.87 222.81 841.39 222.81 841.39 188.98 781.57 188.98 781.57 165.92 837.66 165.92 837.66 134.5 781.57 134.5 781.57 111.34 841.39 111.34 841.39 77.5 738.87 77.5 738.87 222.81"/>
    <path class="cls-1" d="M973.28,155.99c-3.21-5.35-8.08-9.73-14.63-13.17-6.55-3.43-14.84-6.06-24.88-7.87l-14.09-2.53c-7-1.3-12.09-2.8-15.26-4.52-3.17-1.72-4.76-4.16-4.76-7.34v-.1c0-2.14.65-4.07,1.94-5.78,1.3-1.72,3.22-3.08,5.78-4.08,2.56-1,5.72-1.51,9.48-1.51s7.11.52,10.06,1.55c2.95,1.04,5.31,2.48,7.09,4.33,1.78,1.85,2.8,4.07,3.06,6.66l.1.97h37.91l-.1-2.14c-.39-8.75-2.85-16.34-7.39-22.79-4.54-6.45-11.08-11.42-19.63-14.92-8.55-3.5-19.08-5.25-31.59-5.25-11.08,0-20.96,1.88-29.65,5.64-8.68,3.76-15.5,9.07-20.46,15.94-4.96,6.87-7.44,15-7.44,24.4v.1c0,10.89,3.71,19.8,11.13,26.73,7.42,6.93,18.09,11.63,32.03,14.09l14.09,2.53c7.77,1.43,13.25,2.98,16.43,4.67,3.17,1.69,4.76,4.18,4.76,7.48v.1c0,2.33-.81,4.41-2.43,6.22-1.62,1.81-3.9,3.24-6.85,4.28-2.95,1.04-6.5,1.55-10.64,1.55-3.89,0-7.45-.53-10.69-1.6-3.24-1.07-5.93-2.54-8.07-4.42-2.14-1.88-3.5-4.08-4.08-6.61l-.19-.88h-37.91l.1,1.85c.52,9.2,3.26,17.03,8.21,23.47,4.96,6.45,11.86,11.36,20.7,14.73,8.85,3.37,19.33,5.05,31.44,5.05,12.89,0,23.91-1.93,33.05-5.78,9.14-3.85,16.12-9.33,20.95-16.43,4.83-7.1,7.24-15.47,7.24-25.13v-.1c0-7.58-1.6-14.04-4.81-19.39Z"/>
  </g>
</svg>